<?xml version="1.0" encoding="UTF-8"?><svg id="Layer_2" xmlns="http://www.w3.org/2000/svg" viewBox="0 0 99.09 63.2"><defs><style>.cls-1{fill:#00a69d;}.cls-2{fill:#ec433d;}.cls-3{fill:#b0ddd7;}</style></defs><g id="Vrstva_1"><g><path class="cls-1" d="M81,13.69h-16.5v-4.13c0-2.28-1.85-4.13-4.13-4.13h-16.5c-2.28,0-4.13,1.85-4.13,4.13v4.13H23.23c-2.28,0-4.13,1.85-4.13,4.13V59.08c0,2.28,1.85,4.13,4.13,4.13h57.76c2.28,0,4.13-1.85,4.13-4.13V17.82c0-2.28-1.85-4.13-4.13-4.13Zm-39.88,2.75h30.26V60.45H32.86V16.44h8.25Zm1.38-6.88c0-.76,.62-1.38,1.38-1.38h16.5c.76,0,1.38,.62,1.38,1.38v4.13h-19.25v-4.13ZM21.86,59.08V17.82c0-.76,.62-1.38,1.38-1.38h6.88V60.45h-6.88c-.76,0-1.38-.62-1.38-1.38h0Zm60.51,0c0,.76-.62,1.38-1.38,1.38h-6.88V16.44h6.88c.76,0,1.38,.62,1.38,1.38V59.08Z"/><path class="cls-2" d="M47.99,39.82h2.75v2.75c0,.76,.62,1.38,1.38,1.38s1.38-.62,1.38-1.38v-2.75h2.75c.76,0,1.38-.62,1.38-1.38s-.62-1.38-1.38-1.38h-2.75v-2.75c0-.76-.62-1.38-1.38-1.38s-1.38,.62-1.38,1.38v2.75h-2.75c-.76,0-1.38,.62-1.38,1.38s.62,1.38,1.38,1.38Z"/><path class="cls-3" d="M52.12,50.83c6.82,0,12.38-5.55,12.38-12.38s-5.55-12.38-12.38-12.38-12.38,5.55-12.38,12.38,5.55,12.38,12.38,12.38Zm0-22c5.31,0,9.63,4.32,9.63,9.63s-4.32,9.63-9.63,9.63-9.63-4.32-9.63-9.63,4.32-9.63,9.63-9.63h0Z"/><path class="cls-3" d="M25.52,4.7c.62,0,1.22-.25,1.66-.69,.44-.44,.69-1.04,.69-1.66,0-.62-.25-1.22-.69-1.66C26.74,.25,26.14,0,25.52,0s-1.22,.25-1.66,.69c-.44,.44-.69,1.04-.69,1.66s.25,1.22,.69,1.66c.44,.44,1.04,.69,1.66,.69Z"/><path class="cls-3" d="M97.75,44.05c.35,0,.7-.14,.94-.39,.25-.25,.39-.59,.39-.94,0-.35-.14-.7-.39-.94-.25-.25-.59-.39-.94-.39s-.7,.14-.94,.39c-.25,.25-.39,.59-.39,.94,0,.35,.14,.69,.39,.94,.25,.25,.59,.39,.94,.39Z"/><g><path class="cls-3" d="M4.1,43.97c.76,0,1.37-.61,1.37-1.37v-5.47c0-.76-.61-1.37-1.37-1.37s-1.37,.61-1.37,1.37v5.47c0,.76,.61,1.37,1.37,1.37Z"/><path class="cls-3" d="M1.37,41.24H6.84c.76,0,1.37-.61,1.37-1.37,0-.76-.61-1.37-1.37-1.37H1.37c-.76,0-1.37,.61-1.37,1.37,0,.76,.61,1.37,1.37,1.37Z"/></g></g></g></svg>