<?xml version="1.0" encoding="UTF-8"?><svg id="Layer_2" xmlns="http://www.w3.org/2000/svg" viewBox="0 0 67.01 56.03"><defs><style>.cls-1{fill:#00a69d;}.cls-2{fill:#ec433d;}.cls-3{fill:#b0ddd7;}</style></defs><g id="Vrstva_1"><g><path class="cls-3" d="M56.35,43.21c-1.04,0-2.02-.41-2.76-1.14l-2.76-2.76c-.74-.74-1.14-1.72-1.14-2.76s.41-2.02,1.14-2.76c.74-.74,1.72-1.14,2.76-1.14s2.02,.41,2.76,1.14l2.76,2.76c.74,.74,1.14,1.72,1.14,2.76s-.41,2.02-1.14,2.76c-.74,.74-1.72,1.14-2.76,1.14Zm-2.76-7.96c-.35,0-.67,.14-.92,.38-.25,.25-.38,.57-.38,.92s.14,.67,.38,.92l2.76,2.76c.25,.25,.57,.38,.92,.38s.67-.14,.92-.38c.25-.25,.38-.57,.38-.92s-.14-.67-.38-.92l-2.76-2.76c-.25-.25-.57-.38-.92-.38Z"/><path class="cls-3" d="M61.91,18.21h0c-.34,0-.65-.19-.82-.48l-1.34-2.45-2.45-1.34c-.3-.16-.48-.48-.48-.82s.19-.65,.48-.82l2.45-1.34,1.34-2.45c.16-.3,.48-.48,.82-.48s.65,.19,.82,.48l1.34,2.45,2.45,1.34c.3,.16,.48,.48,.48,.82s-.19,.65-.48,.82l-2.45,1.34-1.34,2.45c-.16,.3-.48,.48-.82,.48Zm-2.22-5.09l1.2,.66c.16,.09,.28,.21,.37,.37l.66,1.2,.66-1.2c.09-.16,.21-.28,.37-.37l1.2-.66-1.2-.66c-.16-.09-.28-.21-.37-.37l-.66-1.2-.66,1.2c-.09,.16-.21,.28-.37,.37l-1.2,.66Z"/><path class="cls-1" d="M48.1,45.68c-.73-.73-1.71-1.14-2.75-1.14h-3.54v-12.64h1.68c.29,0,.58-.12,.78-.32,.21-.21,.32-.49,.32-.78v-.75h.75c.78,0,1.54-.32,2.09-.87,.55-.55,.87-1.31,.87-2.09v-1.86c0-.78-.32-1.54-.87-2.09-.56-.56-1.3-.87-2.09-.87h-.75v-1.51h1.68c.29,0,.57-.12,.78-.32,.21-.2,.32-.49,.32-.78v-7.42c0-.61-.5-1.1-1.1-1.1s-1.1,.49-1.1,1.1v6.32H23.25V2.21h21.92v6.32c0,.61,.49,1.1,1.1,1.1s1.1-.49,1.1-1.1V1.1c0-.29-.12-.57-.32-.78s-.49-.32-.78-.32H22.15c-.61,0-1.1,.49-1.1,1.1V19.66c0,.29,.12,.57,.32,.78,.21,.21,.49,.32,.78,.32h1.68v5.22H15.83v-8.24c1.61-.5,2.89-1.74,3.44-3.35,.56-1.65,.27-3.46-.78-4.85l-2.51-3.34c-.73-.97-1.89-1.55-3.11-1.55s-2.38,.58-3.11,1.55l-2.51,3.34c-1.04,1.39-1.34,3.21-.78,4.85,.54,1.61,1.82,2.85,3.44,3.35v5.63c0,1.11,.39,2.2,1.1,3.06,.68,.82,1.62,1.4,2.67,1.64,.24,2.06,1.21,3.95,2.75,5.34,1.57,1.42,3.6,2.2,5.72,2.21h7.89c.67,0,1.22,.55,1.22,1.22v2.16c-.53,.08-.93,.54-.93,1.09v4.46h-1.51v-6.32c0-.61-.49-1.1-1.1-1.1s-1.1,.49-1.1,1.1v6.32h-3.54c-1.04,0-2.01,.4-2.75,1.14-.73,.74-1.14,1.71-1.14,2.75v.93c0,.29,.12,.57,.32,.78,.21,.21,.49,.32,.78,.32h.22c-.26,.52-.39,1.1-.4,1.68,0,1.38,.75,2.67,1.94,3.37s2.69,.69,3.89,0c1.2-.69,1.94-1.98,1.94-3.37,0-.58-.14-1.16-.4-1.68h8.57c.61,0,1.1-.49,1.1-1.1s-.49-1.1-1.1-1.1h-14.66c.04-.38,.21-.74,.48-1.01,.31-.31,.75-.49,1.19-.49h22.27c.44,0,.88,.18,1.19,.49,.27,.27,.44,.63,.48,1.01h-7.24c-.61,0-1.1,.49-1.1,1.1s.49,1.1,1.1,1.1h1.15c-.26,.52-.39,1.1-.4,1.68,0,1.38,.75,2.67,1.94,3.37,.6,.35,1.27,.52,1.94,.52s1.34-.17,1.94-.52c1.2-.69,1.94-1.98,1.94-3.37,0-.58-.14-1.16-.4-1.68h.22c.29,0,.58-.12,.78-.32,.21-.21,.32-.49,.32-.78v-.93c0-1.04-.4-2.01-1.14-2.75Zm-2,6.46c0,.44-.18,.88-.49,1.19-.31,.31-.75,.49-1.19,.49s-.87-.17-1.19-.49c-.31-.31-.49-.75-.49-1.19s.18-.88,.49-1.19c.32-.32,.74-.49,1.19-.49s.88,.18,1.19,.49c.31,.31,.49,.75,.49,1.19ZM13.63,17.98v7.75c-.41-.19-.76-.48-1.02-.85-.31-.44-.48-.96-.48-1.5v-5.39h1.51Zm3.7-4.99c-.07,.76-.42,1.47-.99,1.98-.57,.52-1.3,.8-2.07,.8h-2.78c-.82,0-1.59-.32-2.17-.9-.58-.58-.9-1.35-.9-2.17,0-.66,.22-1.32,.61-1.84l2.51-3.34c.32-.42,.82-.67,1.34-.67s1.03,.25,1.35,.67l2.5,3.34c.46,.61,.67,1.37,.6,2.13Zm6.51,15.2v2.61c0,.29,.12,.57,.32,.78,.21,.21,.49,.32,.78,.32h8.69c.12,.36,.27,.71,.43,1.05l.2,.39c.46,.93,.71,1.98,.71,3.02v2.61h-1.51v-2.15c0-.91-.36-1.77-1-2.42-.65-.65-1.51-1-2.42-1h-7.89c-1.52,0-2.99-.55-4.13-1.55-1.09-.95-1.83-2.25-2.08-3.67h7.9Zm11.68-4.97c.33,.47,.78,.82,1.31,1.03v.98c0,.2-.08,.39-.22,.53s-.33,.22-.53,.22c-.79,0-1.53,.31-2.09,.87-.55,.55-.87,1.31-.87,2.09,0,.25,.01,.5,.04,.75h-7.11v-1.51h.75c1.13,0,2.23-.41,3.1-1.14,.84-.71,1.41-1.69,1.62-2.76,.56-.2,1.03-.55,1.38-1.03,.37-.51,.57-1.11,.57-1.74v-.75h1.51v.75c0,.61,.19,1.2,.55,1.7Zm3.17-1.7c0,.42-.34,.75-.75,.75s-.75-.34-.75-.75v-.75h1.51v.75Zm-2.61,6.67c.79,0,1.53-.31,2.09-.87,.55-.55,.87-1.31,.87-2.09v-.98c.53-.21,.98-.57,1.31-1.03,.35-.5,.54-1.09,.55-1.7v-.75h1.51v8.93h-7.03c-.03-.25-.05-.5-.05-.75,0-.42,.34-.75,.75-.75Zm-4.81-6.67c0,.42-.34,.75-.75,.75s-.75-.34-.75-.75v-.75h1.51v.75Zm-3.2,1.66c.3,.45,.71,.8,1.2,1.02-.16,.49-.47,.93-.88,1.25-.45,.35-1.01,.54-1.58,.54h-.75v-5.22h1.51v.75c0,.59,.18,1.16,.51,1.65Zm9.72,16.12c-.17-.17-.38-.27-.61-.31v-2.62c0-1.38-.33-2.77-.95-4.01l-.19-.39s-.02-.04-.03-.07h3.61v12.64h-1.51v-4.46c0-.29-.12-.57-.32-.78Zm-1.88,1.88v3.36h-3.36v-3.36h3.36Zm8.7-13.34v-3.36h.75c.2,0,.39,.08,.53,.22,.14,.14,.22,.33,.22,.53v1.86c0,.2-.08,.39-.22,.53-.14,.14-.33,.22-.53,.22h-.75Zm-18.91,24.3c0,.44-.18,.88-.49,1.19s-.75,.49-1.19,.49-.87-.17-1.19-.49-.49-.75-.49-1.19,.18-.88,.49-1.19c.32-.32,.74-.49,1.19-.49s.88,.18,1.19,.49,.49,.75,.49,1.19Z"/><path class="cls-2" d="M14.73,12.06h-3.71c-.61,0-1.1,.49-1.1,1.1s.49,1.1,1.1,1.1h3.71c.61,0,1.1-.49,1.1-1.1s-.49-1.1-1.1-1.1Z"/><path class="cls-2" d="M43.35,4.03c-.21-.21-.49-.32-.78-.32H25.86c-.61,0-1.1,.49-1.1,1.1v5.57c0,.29,.12,.58,.32,.78,.21,.21,.49,.32,.78,.32h3.71c.29,0,.58-.12,.78-.32l.96-.96,2.02,2.69c.19,.26,.49,.42,.8,.44,.33,.03,.63-.09,.86-.32l2-2.01,.15,.15c.21,.21,.49,.32,.78,.32h3.54v3.36h-14.5v-.75c0-.29-.12-.57-.32-.78s-.49-.32-.78-.32h0c-.61,0-1.1,.49-1.1,1.1v1.86c0,.29,.12,.58,.32,.78,.21,.21,.49,.32,.78,.32h16.7c.29,0,.57-.11,.78-.32,.21-.2,.32-.49,.32-.78V4.81c0-.29-.12-.58-.32-.78Zm-16.38,5.24v-3.36h14.5v3.36h-3.08l-.6-.61c-.43-.43-1.13-.43-1.56,0l-1.88,1.88-2.02-2.69c-.19-.26-.49-.42-.82-.44h-.07c-.29,0-.58,.12-.78,.32l-1.53,1.53h-2.15Z"/><path class="cls-3" d="M5.47,38.13c-3.02,0-5.47,2.45-5.47,5.47s2.45,5.47,5.47,5.47,5.47-2.45,5.47-5.47-2.45-5.47-5.47-5.47Zm0,2.6c.31,0,.6,.06,.88,.15l-3.6,3.6c-.09-.28-.15-.57-.15-.88,0-1.58,1.29-2.87,2.87-2.87Zm0,5.74c-.31,0-.6-.06-.88-.15l3.6-3.6c.09,.28,.15,.57,.15,.88,0,1.58-1.29,2.87-2.87,2.87Z"/></g></g></svg>