<?xml version="1.0" encoding="UTF-8"?><svg id="Layer_2" xmlns="http://www.w3.org/2000/svg" viewBox="0 0 86.78 62.58"><defs><style>.cls-1{fill:#00a69d;}.cls-2{fill:#ec433d;}.cls-3{fill:#b0ddd7;}</style></defs><g id="Vrstva_1"><g><path class="cls-3" d="M13.21,4.7c.62,0,1.22-.25,1.66-.69,.44-.44,.69-1.04,.69-1.66,0-.62-.25-1.22-.69-1.66C14.43,.25,13.83,0,13.21,0s-1.22,.25-1.66,.69c-.44,.44-.69,1.04-.69,1.66s.25,1.22,.69,1.66c.44,.44,1.04,.69,1.66,.69Z"/><path class="cls-3" d="M85.44,44.05c.35,0,.7-.14,.94-.39,.25-.25,.39-.59,.39-.94,0-.35-.14-.7-.39-.94-.25-.25-.59-.39-.94-.39s-.7,.14-.94,.39c-.25,.25-.39,.59-.39,.94,0,.35,.14,.69,.39,.94,.25,.25,.59,.39,.94,.39Z"/><g><path class="cls-3" d="M72.82,24.66c.76,0,1.37-.61,1.37-1.37v-5.47c0-.76-.61-1.37-1.37-1.37s-1.37,.61-1.37,1.37v5.47c0,.76,.61,1.37,1.37,1.37Z"/><path class="cls-3" d="M70.09,21.92h5.47c.76,0,1.37-.61,1.37-1.37,0-.76-.61-1.37-1.37-1.37h-5.47c-.76,0-1.37,.61-1.37,1.37,0,.76,.61,1.37,1.37,1.37Z"/></g><path class="cls-2" d="M40.5,29.97c-2.65,0-4.81-2.16-4.81-4.81s2.16-4.81,4.81-4.81,4.82,2.16,4.82,4.81-2.16,4.81-4.82,4.81Zm0-6.63c-1,0-1.81,.81-1.81,1.81s.81,1.81,1.81,1.81,1.82-.81,1.82-1.81-.81-1.81-1.82-1.81Z"/><path class="cls-3" d="M40.5,47.8c-2.65,0-4.81-2.16-4.81-4.81s2.16-4.81,4.81-4.81,4.82,2.16,4.82,4.81-2.16,4.81-4.82,4.81Zm0-6.63c-1,0-1.81,.81-1.81,1.81s.81,1.81,1.81,1.81,1.82-.81,1.82-1.81-.81-1.81-1.82-1.81Z"/><g id="Group_2485" transform="translate(14.771 23.677)"><path class="cls-1" d="M31.59,38.89c-2.65,0-4.81-2.16-4.81-4.81s2.16-4.81,4.81-4.81,4.82,2.16,4.82,4.81-2.16,4.81-4.82,4.81Zm0-6.63c-1,0-1.81,.81-1.81,1.81s.81,1.81,1.81,1.81,1.82-.81,1.82-1.81-.81-1.81-1.82-1.81Z"/><path class="cls-1" d="M49.42,38.89c-2.65,0-4.81-2.16-4.81-4.81s2.16-4.81,4.81-4.81,4.82,2.16,4.82,4.81-2.16,4.81-4.82,4.81Zm0-6.63c-1,0-1.81,.81-1.81,1.81s.81,1.81,1.81,1.81,1.82-.81,1.82-1.81-.81-1.81-1.82-1.81Z"/></g><path class="cls-1" d="M67.5,28.61c-.83,0-1.5,.67-1.5,1.5v2.47h-4.43c-.35-4.69-2.23-8.96-5.15-12.3l3.17-3.17,1.74,1.74c.29,.29,.68,.44,1.06,.44s.77-.15,1.06-.44c.59-.59,.59-1.54,0-2.12l-2.8-2.8h0l-2.8-2.81c-.59-.59-1.54-.59-2.12,0-.59,.59-.59,1.54,0,2.12l1.75,1.75-3.17,3.17c-3.35-2.9-7.62-4.75-12.3-5.08v-4.5h2.47c.83,0,1.5-.67,1.5-1.5s-.67-1.5-1.5-1.5h-7.94c-.83,0-1.5,.67-1.5,1.5s.67,1.5,1.5,1.5h2.47v4.5c-4.68,.33-8.95,2.18-12.3,5.08l-3.17-3.17,1.75-1.75c.59-.59,.59-1.54,0-2.12-.59-.59-1.54-.59-2.12,0l-2.81,2.81h0l-2.8,2.81c-.59,.59-.59,1.54,0,2.12,.29,.29,.68,.44,1.06,.44s.77-.15,1.06-.44l1.75-1.75,3.17,3.17c-2.92,3.35-4.8,7.61-5.15,12.3h-4.43v-2.47c0-.83-.67-1.5-1.5-1.5s-1.5,.67-1.5,1.5v7.94c0,.83,.67,1.5,1.5,1.5s1.5-.67,1.5-1.5v-2.47h4.42c.32,4.71,2.17,9.01,5.08,12.38l-3.1,3.1-1.75-1.75c-.59-.59-1.54-.59-2.12,0-.59,.59-.59,1.54,0,2.12l2.8,2.8h0l2.8,2.81c.29,.29,.68,.44,1.06,.44s.77-.15,1.06-.44c.59-.59,.59-1.54,0-2.12l-1.75-1.75,3.09-3.09c3.36,2.94,7.66,4.82,12.38,5.15v4.35h-2.47c-.83,0-1.5,.67-1.5,1.5s.67,1.5,1.5,1.5h7.94c.83,0,1.5-.67,1.5-1.5s-.67-1.5-1.5-1.5h-2.47v-4.35c4.72-.33,9.02-2.22,12.38-5.15l3.09,3.09-1.75,1.75c-.59,.59-.59,1.54,0,2.12,.29,.29,.68,.44,1.06,.44s.77-.15,1.06-.44l2.8-2.8h.01l2.8-2.81c.59-.59,.59-1.54,0-2.12-.59-.59-1.54-.59-2.12,0l-1.75,1.75-3.1-3.1c2.91-3.37,4.77-7.66,5.08-12.38h4.42v2.47c0,.83,.67,1.5,1.5,1.5s1.5-.67,1.5-1.5v-7.94c0-.83-.67-1.5-1.5-1.5Zm-14.02,18.21s-.1,.05-.14,.1c-.05,.05-.07,.11-.11,.16-3.19,3.15-7.54,5.11-12.34,5.21-.12-.03-.25-.06-.39-.06s-.26,.02-.39,.06c-4.8-.1-9.15-2.07-12.34-5.21-.04-.05-.06-.12-.11-.17-.04-.04-.1-.06-.15-.1-3.19-3.27-5.17-7.74-5.17-12.66,0-10.01,8.14-18.15,18.15-18.15s18.15,8.14,18.15,18.15c0,4.92-1.98,9.39-5.17,12.66Z"/><path class="cls-3" d="M4.92,53.24c-2.71,0-4.92-2.21-4.92-4.92s2.21-4.92,4.92-4.92,4.92,2.21,4.92,4.92-2.21,4.92-4.92,4.92Zm0-7.38c-1.36,0-2.46,1.1-2.46,2.46s1.1,2.46,2.46,2.46,2.46-1.1,2.46-2.46-1.1-2.46-2.46-2.46Z"/></g></g></svg>