<svg id="Group_4687" data-name="Group 4687" xmlns="http://www.w3.org/2000/svg" width="29.741" height="20.825" viewBox="0 0 29.741 20.825">
  <path id="Path_38476" data-name="Path 38476" d="M72.106,37.763a1.412,1.412,0,0,1-1.01-.421l-1.01-1.006a1.428,1.428,0,1,1,2.019-2.019l1.006,1.01a1.419,1.419,0,0,1,.421,1.01,1.438,1.438,0,0,1-1.427,1.427ZM71.1,34.836a.476.476,0,0,0-.337.812l1.01,1.01a.476.476,0,0,0,.673-.673l-1.01-1.01a.468.468,0,0,0-.337-.124Z" transform="translate(-44.191 -21.499)" fill="#212121"/>
  <path id="Path_38477" data-name="Path 38477" d="M1.438,37.316h0a1.423,1.423,0,1,1,1.01-.417A1.423,1.423,0,0,1,1.438,37.316Zm0-1.9a.476.476,0,1,0,.476.476A.476.476,0,0,0,1.438,35.414Z" transform="translate(-0.018 -21.861)" fill="#212121"/>
  <path id="Path_38478" data-name="Path 38478" d="M72.835,16.137h0a1.9,1.9,0,1,1,1.346-.556A1.9,1.9,0,0,1,72.835,16.137Zm0-2.853a.951.951,0,1,0,.951.951A.951.951,0,0,0,72.835,13.283Z" transform="translate(-44.996 -7.826)" fill="#212121"/>
  <path id="Path_38479" data-name="Path 38479" d="M18.39,9.662a1.686,1.686,0,1,1,1.189-.494A1.668,1.668,0,0,1,18.39,9.662Zm0-2.44a.732.732,0,0,0-.534.219.763.763,0,1,0,.534-.212Z" transform="translate(-10.598 -3.989)" fill="#212121"/>
  <path id="Path_38480" data-name="Path 38480" d="M31.2,19.868H27.125V18.039a8.426,8.426,0,0,0,2.787-6.511V9.238a.461.461,0,0,0-.476-.457H18.7V8.2H18.9a3.486,3.486,0,0,0,.71-.07A2.9,2.9,0,0,0,21.9,5.876a3.684,3.684,0,0,0,.033-1.332.457.457,0,0,0-.388-.388,3.7,3.7,0,0,0-1.35.04,2.926,2.926,0,0,0-1.434.79l-.059.066V4.409a3.256,3.256,0,0,0,.633-.658A2.473,2.473,0,0,0,19.8,2.32a2.473,2.473,0,0,0-.457-1.4A3.248,3.248,0,0,0,18.5.082a.468.468,0,0,0-.523,0,3.292,3.292,0,0,0-.863.852A2.487,2.487,0,0,0,16.67,2.32a2.455,2.455,0,0,0,.461,1.416,3.175,3.175,0,0,0,.64.673V8.78H12.346a.457.457,0,0,0-.461.461v2.3a8.849,8.849,0,0,0,.845,3.841A8.146,8.146,0,0,0,15.1,18.361v1.507H11.029a.479.479,0,0,0,0,.958H31.2a.479.479,0,1,0,0-.958ZM18.868,6.659A1.964,1.964,0,0,1,20.4,5.122a2.539,2.539,0,0,1,.655-.059A2.469,2.469,0,0,1,21,5.7a1.961,1.961,0,0,1-1.569,1.547,2.422,2.422,0,0,1-.615.051A2.524,2.524,0,0,1,18.868,6.659Zm-.995-5.194a2.195,2.195,0,0,1,.366-.4,2.092,2.092,0,0,1,.366.4,1.536,1.536,0,0,1,.289.878,1.529,1.529,0,0,1-.3.9,2.023,2.023,0,0,1-.337.366,2.261,2.261,0,0,1-.348-.384,1.507,1.507,0,0,1-.033-1.749ZM26.2,18.474v1.386H16.041V18.474Zm-13.4-8.779H28.972v.915H12.807Zm.523,4.792H25.643a.461.461,0,1,0,0-.922H13.173a.53.53,0,0,0-.128.026,8.337,8.337,0,0,1-.249-2.049H29a7.484,7.484,0,0,1-2.692,6.007H15.58a7.243,7.243,0,0,1-2.25-3.058Z" transform="translate(-6.698 -0.002)" fill="#212121"/>
  <path id="Path_38481" data-name="Path 38481" d="M40.61,9.666h1.321l3.7-3.621a.472.472,0,0,0,.132-.4A1.829,1.829,0,0,1,48.9,4.069a1.847,1.847,0,0,1-1.306,3.153,2.019,2.019,0,0,1-.26-.018.457.457,0,0,0-.366.117l-2.6,2.345h1.375L47.425,8.14h.168a2.764,2.764,0,1,0-2.765-2.612Z" transform="translate(-25.761 -1.655)" fill="#212121"/>
</svg>
