<svg xmlns="http://www.w3.org/2000/svg" width="24" height="24" viewBox="0 0 24 24"><title>icon_settings</title><path d="M10.41,19.71H.86a.86.86,0,1,0,0,1.72h9.55a3.41,3.41,0,0,0,6.61,0h6.12a.86.86,0,0,0,0-1.72H17a3.41,3.41,0,0,0-6.61,0Zm5,.86a1.72,1.72,0,1,1-1.72-1.71A1.72,1.72,0,0,1,15.43,20.57Z" fill="#231f20"/><path d="M4.41,11.14H.86a.86.86,0,1,0,0,1.72H4.41a3.41,3.41,0,0,0,6.61,0H23.14a.86.86,0,0,0,0-1.72H11a3.41,3.41,0,0,0-6.61,0Zm5,.86a1.72,1.72,0,1,1-1.72-1.71A1.71,1.71,0,0,1,9.43,12Z" fill="#231f20"/><path d="M13.71,0a3.42,3.42,0,0,0-3.3,2.57H.86a.86.86,0,0,0,0,1.72h9.55a3.41,3.41,0,0,0,6.61,0h6.12a.86.86,0,0,0,0-1.72H17A3.42,3.42,0,0,0,13.71,0Zm1.72,3.43a1.72,1.72,0,1,1-1.72-1.72A1.71,1.71,0,0,1,15.43,3.43Z" fill="#231f20"/></svg>