<svg id="insta_icon" data-name="insta icon" xmlns="http://www.w3.org/2000/svg" width="24.494" height="24.493" viewBox="0 0 24.494 24.493">
  <path id="Path_23778" data-name="Path 23778" d="M24.494,12.283c0,1.639,0,3.291,0,4.933a7.194,7.194,0,0,1-6.271,7.207,7.68,7.68,0,0,1-1,.067q-4.97.007-9.915,0A7.188,7.188,0,0,1,.073,18.2a7.662,7.662,0,0,1-.057-1.037C0,13.9.044,10.626,0,7.362A7.253,7.253,0,0,1,6.3.064,9.065,9.065,0,0,1,7.238.01Q12.241,0,17.252,0A7.178,7.178,0,0,1,24.42,6.269a14.559,14.559,0,0,1,.074,1.765c0,1.417,0,2.829,0,4.249M12.248,2.229c-1.615,0-3.222,0-4.837.007a6.054,6.054,0,0,0-1.173.1,4.949,4.949,0,0,0-4,5.024q-.015,4.877,0,9.762a5.006,5.006,0,0,0,.119,1.138,4.938,4.938,0,0,0,4.982,4q4.918.011,9.839,0a5.156,5.156,0,0,0,1.067-.1,4.966,4.966,0,0,0,4.029-5q0-4.9-.007-9.807a5.373,5.373,0,0,0-.1-1.1,4.957,4.957,0,0,0-4.97-4.012c-1.654,0-3.3,0-4.943,0" transform="translate(-0.001)" fill="#999" fill-rule="evenodd"/>
  <path id="Path_23779" data-name="Path 23779" d="M8.95,2.255A6.677,6.677,0,1,1,2.257,8.909,6.681,6.681,0,0,1,8.95,2.255m0,2.225a4.453,4.453,0,1,0,4.439,4.454A4.461,4.461,0,0,0,8.945,4.48" transform="translate(3.314 3.312)" fill="#999" fill-rule="evenodd"/>
  <path id="Path_23780" data-name="Path 23780" d="M9.233,2.908a1.009,1.009,0,0,1-2.017-.02,1.009,1.009,0,1,1,2.017.02" transform="translate(10.599 2.773)" fill="#999" fill-rule="evenodd"/>
</svg>
