<svg id="youtube_icon" data-name="youtube icon" xmlns="http://www.w3.org/2000/svg" width="34.521" height="25.104" viewBox="0 0 34.521 25.104">
  <path id="Path_1390" data-name="Path 1390" d="M33.81,4.49A5.328,5.328,0,0,0,30.059.716C27.478.02,18.3,0,17.261,0S7.043.02,4.464.716A5.328,5.328,0,0,0,.711,4.489,42.415,42.415,0,0,0,0,12.552a42.472,42.472,0,0,0,.71,8.063,5.331,5.331,0,0,0,3.753,3.774c2.581.7,11.76.716,12.8.716s10.217-.02,12.8-.716a5.327,5.327,0,0,0,3.753-3.774,42.51,42.51,0,0,0,.711-8.063A42.507,42.507,0,0,0,33.81,4.49ZM31.252,19.934a2.674,2.674,0,0,1-1.882,1.9c-1.9.511-9.386.625-12.109.625s-10.208-.112-12.11-.625a2.68,2.68,0,0,1-1.882-1.9,41.08,41.08,0,0,1-.621-7.381A41.016,41.016,0,0,1,3.27,5.171a2.676,2.676,0,0,1,1.882-1.9c1.9-.511,9.385-.625,12.109-.625s10.209.114,12.11.625a2.674,2.674,0,0,1,1.881,1.9h0a41.057,41.057,0,0,1,.62,7.381A40.983,40.983,0,0,1,31.252,19.934Z" transform="translate(0 0)" fill="#999"/>
  <path id="Path_1391" data-name="Path 1391" d="M18.8,9.453l-3.322-2.5a3.028,3.028,0,0,0-1.816-.616h-.006a3.061,3.061,0,0,0-2.107.842,3.026,3.026,0,0,0-.941,2.2v5a3.022,3.022,0,0,0,.941,2.2,3.065,3.065,0,0,0,2.106.842h.007a3.038,3.038,0,0,0,1.815-.614l3.322-2.5a3.041,3.041,0,0,0,0-4.861Zm-5.977-.067a.792.792,0,0,1,.249-.6.874.874,0,0,1,.581-.236h0a.8.8,0,0,1,.49.17l3.323,2.5a.827.827,0,0,1,0,1.321l-3.323,2.5a.793.793,0,0,1-.49.17h0a.867.867,0,0,1-.58-.233.79.79,0,0,1-.251-.6Z" transform="translate(1.95 0.67)" fill="#999"/>
</svg>
