<svg id="fb_icon" data-name="fb icon" xmlns="http://www.w3.org/2000/svg" width="24.233" height="24.226" viewBox="0 0 24.233 24.226">
  <path id="Path_23777" data-name="Path 23777" d="M25.476,24.279H13.635c-.049-.02-.094-.044-.138-.067a1.332,1.332,0,0,1-.948-1.318q0-10.733,0-21.463a1.282,1.282,0,0,1,.042-.343A1.325,1.325,0,0,1,13.961.054h21.49a1.348,1.348,0,0,1,.8.284,1.6,1.6,0,0,1,.533.842V23.154a1.517,1.517,0,0,1-.565.859c-.165.1-.353.18-.521.267H29.266V14.915c.069,0,.121-.015.156-.015.911,0,1.832,0,2.748,0,.185,0,.259-.035.284-.239.116-1.059.264-2.116.4-3.175.03-.242.03-.249-.22-.249h-3.17c-.094,0-.2.032-.2-.131.007-.844,0-1.684.015-2.536A1.4,1.4,0,0,1,29.726,7.5a1.789,1.789,0,0,1,1.106-.356c.662-.022,1.326-.015,1.99-.015.141,0,.19-.042.19-.183-.01-.193,0-.38,0-.565V4.044c0-.086.027-.185-.123-.2a17.105,17.105,0,0,0-3.607-.064,4.186,4.186,0,0,0-2.138.876,4.336,4.336,0,0,0-1.62,3.368c-.047,1-.025,2-.025,3,0,.168-.04.222-.217.222-.9-.01-1.8-.007-2.708-.007h-.225V14.9H25.5v.249q0,4.452-.01,8.9c0,.072,0,.151-.012.23" transform="translate(-12.549 -0.054)" fill="#999"></path>
</svg>
