<svg xmlns="http://www.w3.org/2000/svg" width="14" height="14" viewBox="0 0 14 14">
  <path id="Path_38524" data-name="Path 38524" d="M13.573,13.139,10.953,11a1.326,1.326,0,0,0-1.711.08L8.222,12.1a.517.517,0,0,1-.577.06l-.119-.066-.351-.219a8.548,8.548,0,0,1-1.16-.935,7.641,7.641,0,0,1-.955-1.154,4.047,4.047,0,0,1-.219-.358c-.04-.06-.06-.1-.086-.146a.511.511,0,0,1,.073-.551L5.848,7.705a1.327,1.327,0,0,0,.119-1.738L3.792,3.347a1.127,1.127,0,0,0-1.678-.086L.5,4.879c-1.439,1.413.451,6.057,2.971,8.578s7.141,4.412,8.58,2.972l1.611-1.612a1.115,1.115,0,0,0-.086-1.678Zm-.59,1-1.618,1.619c-.9.9-5.039-.8-7.214-2.972S.271,6.465,1.18,5.556L2.791,3.944a.166.166,0,0,1,.259,0L5.185,6.578a.332.332,0,0,1,0,.425L4.15,8.024a1.447,1.447,0,0,0-.232,1.7,4.578,4.578,0,0,0,.345.571,8.729,8.729,0,0,0,1.074,1.327A9.284,9.284,0,0,0,6.663,12.7c.252.166.444.279.57.345a1.465,1.465,0,0,0,1.7-.232l1.014-1.055a.331.331,0,0,1,.424,0L12.982,13.9a.153.153,0,0,1,0,.232Z" transform="translate(0.001 -2.927)" fill="#fff" fill-rule="evenodd"></path>
</svg>
